<svg width="18" height="17" viewBox="0 0 22 17" fill="none" xmlns="http://www.w3.org/2000/svg">
<path d="M0.818848 0.955078V2.45508C0.818848 6.60508 3.02885 10.2351 6.31885 12.2551V16.9551H21.3188V14.9551C21.3188 12.2951 15.9888 10.9551 13.3188 10.9551H13.0688C8.31885 10.9551 4.31885 6.95508 4.31885 2.45508V0.955078M13.3188 0.955078C12.258 0.955078 11.2406 1.37651 10.4904 2.12665C9.74027 2.8768 9.31885 3.89421 9.31885 4.95508C9.31885 6.01594 9.74027 7.03336 10.4904 7.78351C11.2406 8.53365 12.258 8.95508 13.3188 8.95508C14.3797 8.95508 15.3971 8.53365 16.1473 7.78351C16.8974 7.03336 17.3188 6.01594 17.3188 4.95508C17.3188 3.89421 16.8974 2.8768 16.1473 2.12665C15.3971 1.37651 14.3797 0.955078 13.3188 0.955078Z" fill="#666665"/>
</svg>
