<svg width="110" height="23" viewBox="0 0 110 23" fill="none" xmlns="http://www.w3.org/2000/svg">
<path fill-rule="evenodd" clip-rule="evenodd" d="M13.2143 0.5C6.19152 0.5 0 5.13535 0 11.3978C0 13.0752 0.458769 14.6593 1.26678 16.0669C1.59054 16.6309 1.67502 17.1481 1.57245 17.5474L0.681731 21.0141C0.343657 22.3299 1.75246 23.4223 2.99406 22.8071L6.07247 21.2816C6.48178 21.0788 7.04909 21.0585 7.6543 21.2897C9.35 21.9374 11.2352 22.2957 13.2143 22.2957C15.3036 22.2957 17.3193 21.8854 19.1204 21.1441C20.9213 21.8854 22.9371 22.2957 25.0264 22.2957C27.0055 22.2957 28.8907 21.9374 30.5864 21.2897C31.1916 21.0585 31.7589 21.0788 32.1682 21.2816L35.2467 22.8071C36.4883 23.4223 37.8971 22.3299 37.5589 21.0141L36.6682 17.5474C36.5657 17.1481 36.6502 16.6309 36.974 16.0669C37.7819 14.6593 38.2407 13.0752 38.2407 11.3978C38.2407 5.13535 32.0492 0.5 25.0264 0.5C22.9371 0.5 20.9213 0.910267 19.1204 1.65159C17.3193 0.910267 15.3036 0.5 13.2143 0.5ZM25.0264 19.4207C24.1384 19.4207 23.2866 19.335 22.4799 19.1752C24.8913 17.2349 26.4286 14.5184 26.4286 11.3978C26.4286 8.27731 24.8913 5.5608 22.4799 3.62047C23.2866 3.4607 24.1384 3.375 25.0264 3.375C30.9645 3.375 35.2877 7.20726 35.2877 11.3978C35.2877 12.5544 34.9734 13.6587 34.3961 14.6643C33.8321 15.647 33.464 16.9237 33.8035 18.245L33.9863 18.9566L33.5077 18.7194C32.1836 18.0632 30.7112 18.1536 29.5078 18.6133C28.1592 19.1285 26.6401 19.4207 25.0264 19.4207ZM11.8121 11.3978C11.8121 8.27731 13.3494 5.5608 15.7608 3.62047C14.9541 3.4607 14.1023 3.375 13.2143 3.375C7.2762 3.375 2.95302 7.20726 2.95302 11.3978C2.95302 12.5544 3.26726 13.6587 3.84456 14.6643C4.4086 15.647 4.77669 16.9237 4.4372 18.245L4.25438 18.9566L4.73299 18.7194C6.05715 18.0632 7.52946 18.1536 8.73282 18.6133C10.0815 19.1285 11.6006 19.4207 13.2143 19.4207C14.1023 19.4207 14.9541 19.335 15.7608 19.1752C13.3494 17.2349 11.8121 14.5184 11.8121 11.3978ZM16.2416 7.6875C16.2416 7.29054 16.5721 6.96875 16.9799 6.96875H21.4094C21.8171 6.96875 22.1477 7.29054 22.1477 7.6875C22.1477 8.08447 21.8171 8.40625 21.4094 8.40625H16.9799C16.5721 8.40625 16.2416 8.08447 16.2416 7.6875ZM16.2416 14.875C16.2416 14.478 16.5721 14.1562 16.9799 14.1562H21.4094C21.8171 14.1562 22.1477 14.478 22.1477 14.875C22.1477 15.272 21.8171 15.5937 21.4094 15.5937H16.9799C16.5721 15.5937 16.2416 15.272 16.2416 14.875ZM15.5034 10.5625C15.0956 10.5625 14.7651 10.8843 14.7651 11.2812C14.7651 11.6782 15.0956 12 15.5034 12H22.8859C23.2936 12 23.6242 11.6782 23.6242 11.2812C23.6242 10.8843 23.2936 10.5625 22.8859 10.5625H15.5034ZM105.056 10.2086C105.154 8.53397 106.347 7.8025 107.788 7.55488C108.447 7.44164 108.998 7.99757 108.998 8.66621V20.5752C108.998 21.3484 108.371 21.9752 107.598 21.9752H106.456C105.682 21.9752 105.056 21.3484 105.056 20.5752V10.2086ZM107.45 1.13149C108.074 1.13149 108.599 1.34918 109.023 1.78456C109.498 2.19582 109.697 2.72795 109.697 3.33264C109.697 3.9616 109.473 4.46954 109.048 4.90492C108.661 5.28 108.076 5.35682 107.462 5.43749C106.532 5.55972 105.535 5.69077 105.056 6.88149C104.731 5.76886 104.653 2.89727 105.851 1.73618C106.276 1.32499 106.825 1.13149 107.45 1.13149ZM95.8018 7.22648C93.5575 7.22648 91.8152 8.17523 90.7521 9.55523C89.7481 8.08898 88.0649 7.22648 85.9092 7.22648C83.7535 7.22648 82.2179 8.17523 81.2139 9.52648V8.54898C81.2139 7.85898 80.8004 7.45648 80.0917 7.45648H78.9696C78.2608 7.45648 77.8474 7.85898 77.8474 8.54898V20.854C77.8474 21.544 78.2608 21.9752 78.9696 21.9752H80.6823C81.3911 21.9752 81.7749 21.544 81.7749 20.854V13.6665C81.7749 11.7402 83.0743 10.504 84.9347 10.504C86.7951 10.504 87.8877 11.7402 87.8877 13.6665V20.854C87.8877 21.544 88.3011 21.9752 89.0098 21.9752H90.7226C91.4313 21.9752 91.8152 21.544 91.8152 20.854V13.6665C91.8152 11.7402 93.1145 10.504 94.9749 10.504C96.8354 10.504 97.928 11.7402 97.928 13.6665V20.854C97.928 21.544 98.3119 21.9752 99.0206 21.9752H100.733C101.442 21.9752 101.855 21.544 101.855 20.854V13.379C101.855 9.69898 99.4635 7.22648 95.8018 7.22648ZM62.5353 8.80773C64.2481 7.68648 66.1675 7.22648 67.9984 7.22648C71.7192 7.22648 74.6722 9.00898 74.6722 13.264V20.854C74.6722 21.5727 74.2883 21.9752 73.5796 21.9752H72.6347C71.9259 21.9752 71.5125 21.544 71.5125 20.854V20.3652C70.2427 21.5727 68.53 22.349 66.64 22.349C63.185 22.349 60.8521 20.4802 60.8521 17.7202C60.8521 14.7877 63.3917 12.8327 67.1716 12.8327C68.5595 12.8327 69.8588 13.149 71.0105 13.609V12.8327C71.0105 11.1652 69.7702 10.1302 67.7326 10.1302C66.3152 10.1302 64.9863 10.5615 63.9528 11.2515C63.3622 11.5965 62.8602 11.4815 62.4763 10.849L62.2105 10.389C61.7675 9.64148 62.0038 9.12398 62.5353 8.80773ZM64.6024 17.5765C64.6024 18.8702 65.7541 19.7327 67.4964 19.7327C69.4159 19.7327 71.0991 18.5827 71.0991 17.174V16.1102C70.3608 15.7652 69.0615 15.2765 67.7031 15.2765C65.8427 15.2765 64.6024 16.1965 64.6024 17.5765ZM59.2072 20.854L53.8622 14.069L59.0005 8.57773C59.532 7.94523 59.1186 7.45648 58.4394 7.45648H56.2542C55.5159 7.45648 55.132 7.83023 54.5414 8.52023L49.5213 14.069V2.54023C49.5213 1.79273 49.1374 1.30398 48.3401 1.47648L46.7454 1.76398C46.0072 1.93648 45.6233 2.22398 45.6233 2.88523V20.854C45.6233 21.544 46.0367 21.9752 46.7454 21.9752H48.4287C49.1374 21.9752 49.5213 21.544 49.5213 20.854V17.5477L50.9387 16.0527L54.63 20.9115C55.132 21.6302 55.575 21.9752 56.3132 21.9752H58.6461C59.3253 21.9752 59.7387 21.4865 59.2072 20.854Z" fill="#0D0D0D"/>
</svg>
