<svg width="143" height="49" viewBox="0 0 143 49" fill="none" xmlns="http://www.w3.org/2000/svg">
<path fill-rule="evenodd" clip-rule="evenodd" d="M0 14.2794C0 7.18488 7.13752 1.93365 15.2333 1.93365C17.6418 1.93365 19.9655 2.39843 22.0417 3.23825C24.1179 2.39843 26.4416 1.93365 28.8501 1.93365C36.9459 1.93365 44.0835 7.18488 44.0835 14.2794C44.0835 16.1796 43.5545 17.9742 42.6231 19.5689C42.2499 20.2078 42.1525 20.7937 42.2707 21.246L43.2975 25.1734C43.6873 26.664 42.0632 27.9015 40.6319 27.2045L37.0831 25.4765C36.6113 25.2467 35.9574 25.2237 35.2597 25.4856C33.3049 26.2194 31.1316 26.6252 28.8501 26.6252C26.4416 26.6252 24.1179 26.1604 22.0417 25.3206C19.9655 26.1604 17.6418 26.6252 15.2333 26.6252C12.9518 26.6252 10.7786 26.2194 8.82379 25.4856C8.12611 25.2237 7.47212 25.2467 7.00027 25.4765L3.45152 27.2045C2.02021 27.9015 0.396164 26.664 0.785892 25.1734L1.8127 21.246C1.93094 20.7937 1.83356 20.2078 1.46033 19.5689C0.528863 17.9742 0 16.1796 0 14.2794ZM25.9145 23.0902C26.8445 23.2712 27.8265 23.3682 28.8501 23.3682C30.7104 23.3682 32.4616 23.0372 34.0163 22.4536C35.4035 21.9329 37.1008 21.8304 38.6273 22.5738L39.179 22.8425L38.9683 22.0364C38.5769 20.5395 39.0012 19.0932 39.6514 17.9799C40.317 16.8406 40.6792 15.5896 40.6792 14.2794C40.6792 9.53208 35.6955 5.19064 28.8501 5.19064C27.8265 5.19064 26.8445 5.28773 25.9145 5.46872C28.6944 7.66687 30.4665 10.7443 30.4665 14.2794C30.4665 17.8146 28.6944 20.892 25.9145 23.0902ZM18.1688 5.46872C15.3891 7.66687 13.6168 10.7443 13.6168 14.2794C13.6168 17.8146 15.3891 20.892 18.1688 23.0902C17.2389 23.2712 16.257 23.3682 15.2333 23.3682C13.3731 23.3682 11.6219 23.0372 10.0671 22.4536C8.67988 21.9329 6.98261 21.8304 5.45613 22.5738L4.9044 22.8425L5.11515 22.0364C5.50651 20.5395 5.08218 19.0932 4.43196 17.9799C3.76646 16.8406 3.40421 15.5896 3.40421 14.2794C3.40421 9.53208 8.38791 5.19064 15.2333 5.19064C16.257 5.19064 17.2389 5.28773 18.1688 5.46872ZM19.5742 9.26188C19.1042 9.26188 18.7231 9.62642 18.7231 10.0761C18.7231 10.5258 19.1042 10.8904 19.5742 10.8904H24.6805C25.1505 10.8904 25.5315 10.5258 25.5315 10.0761C25.5315 9.62642 25.1505 9.26188 24.6805 9.26188H19.5742ZM19.5742 17.4043C19.1042 17.4043 18.7231 17.7689 18.7231 18.2186C18.7231 18.6683 19.1042 19.0328 19.5742 19.0328H24.6805C25.1505 19.0328 25.5315 18.6683 25.5315 18.2186C25.5315 17.7689 25.1505 17.4043 24.6805 17.4043H19.5742ZM17.021 14.1474C17.021 13.6977 17.4021 13.3331 17.8721 13.3331H26.3826C26.8526 13.3331 27.2337 13.6977 27.2337 14.1474C27.2337 14.5971 26.8526 14.9616 26.3826 14.9616H17.8721C17.4021 14.9616 17.021 14.5971 17.021 14.1474Z" fill="white"/>
<path d="M66.7126 27.0744C66.0845 26.0853 65.5302 24.8763 65.0869 23.4842L63.7198 19.0881C63.2764 17.6227 62.4635 17.2564 60.8748 17.2564H58.2884C59.1382 15.6078 59.8772 14.5088 60.5053 13.9593C61.1334 13.4098 61.8724 13.1167 62.7222 13.1167C63.4981 13.1167 64.3479 13.4464 65.3455 14.0692L65.8258 8.61064H64.4218C62.3527 8.61064 61.1334 9.4166 59.9511 11.3582C59.3599 12.3107 58.584 13.8127 57.6603 15.8276L56.5149 18.3188V0.954041C54.7044 1.83327 52.894 2.52932 51.1204 3.00557C51.8225 4.50758 51.9333 6.00959 51.9333 8.61064V21.5426C51.9333 23.7407 51.7855 25.0595 51.0835 27.0744H57.0322C56.6257 25.0595 56.5149 23.704 56.5149 21.5426V20.7366L57.882 18.0623C58.4362 18.1722 58.6209 18.4287 58.8796 19.3079L61.2073 27.0744H66.7126Z" fill="white"/>
<path d="M67.6418 4.06797C67.6418 5.71652 68.898 6.99873 70.6346 6.99873C72.4081 6.99873 73.7013 5.71652 73.7013 4.06797C73.7013 2.41942 72.4081 1.10058 70.6346 1.10058C68.898 1.10058 67.6418 2.41942 67.6418 4.06797ZM68.4546 21.9456C68.4546 23.008 68.4177 23.8872 68.3068 24.5833C68.196 25.2427 67.9743 26.0853 67.6048 27.0744H73.8491C73.4796 26.0853 73.2579 25.2427 73.147 24.5833C73.0362 23.8872 72.9992 23.008 72.9992 21.9456V8.28093C71.4844 9.01362 69.6739 9.70967 67.6048 10.3325C68.3438 11.8345 68.4546 13.3365 68.4546 15.7177V21.9456Z" fill="white"/>
<path d="M91.452 27.0744C90.713 24.9862 90.4544 23.3377 90.4544 20.9564V13.483C90.4544 10.1127 88.9764 8.31757 86.427 8.31757C84.321 8.31757 82.4366 9.45323 81.2543 11.6879C81.2173 10.6255 80.8478 9.16016 80.4414 8.2443C79.2591 8.83045 77.7072 9.5265 75.8229 10.3325C76.5619 11.8345 76.6727 13.08 76.6727 15.5346V21.7258C76.6727 24.0704 76.5619 25.2793 75.8229 27.0744H82.1041C81.3651 25.316 81.2543 24.107 81.2543 21.7258V12.7503C82.0671 11.7978 82.9539 11.3216 83.8776 11.3216C85.2447 11.3216 85.8728 12.1275 85.8728 14.1791V21.0664C85.8728 23.6674 86.0206 25.6823 86.3531 27.0744H91.452Z" fill="white"/>
<path d="M108.47 27.0744C107.731 24.9862 107.472 23.3377 107.472 20.9564V13.483C107.472 10.076 105.994 8.31757 103.445 8.31757C101.376 8.31757 99.4544 9.48987 98.2721 11.7246V0.954041C96.4616 1.83327 94.6512 2.52932 92.8777 3.00557C93.5797 4.50758 93.6905 6.00959 93.6905 8.61064V21.7258C93.6905 24.0704 93.5797 25.2793 92.8407 27.0744H99.1219C98.3829 25.2793 98.2721 24.0704 98.2721 21.7258V12.7503C99.0849 11.7978 99.9717 11.3216 100.895 11.3216C102.336 11.3216 102.928 12.1275 102.928 14.1791V21.0664C102.928 23.6674 103.075 25.6823 103.408 27.0744H108.47Z" fill="white"/>
<path d="M125.089 27.0744C124.387 25.0595 124.239 23.7773 124.239 21.4693V8.28093C122.687 9.01362 120.951 9.70967 118.993 10.3325C119.547 11.7612 119.658 13.3731 119.658 15.7177V23.1912C118.956 23.9971 118.106 24.4001 117.182 24.4001C115.556 24.4001 115.076 23.2644 115.076 21.5426V8.31757C113.82 8.86708 112.009 9.56314 109.645 10.3691C110.384 12.1642 110.494 13.4464 110.494 15.7544V22.2387C110.494 25.6457 111.972 27.4041 114.633 27.4041C116.665 27.4041 118.512 26.3417 119.695 24.2902C119.805 25.2793 120.101 26.4883 120.433 27.0744H125.089Z" fill="white"/>
<path d="M142.189 16.4504C142.189 11.0285 139.972 8.3542 136.573 8.3542C134.615 8.3542 132.804 9.27006 131.807 11.1384V0.990677C130.144 1.68673 128.334 2.38279 126.375 3.04221C127.004 4.50758 127.225 6.08286 127.225 8.42747V27.0744H129.627L130.698 25.5724C131.622 26.7447 133.026 27.3308 134.245 27.3308C138.79 27.3308 142.189 23.2278 142.189 16.4504ZM137.349 18.392C137.349 23.704 136.13 25.7189 134.393 25.7189C133.1 25.7189 131.807 24.6932 131.807 22.6783V12.3474C132.546 11.6513 133.359 11.285 134.209 11.285C136.278 11.3216 137.349 13.2999 137.349 18.392Z" fill="white"/>
<path d="M51.316 35.308V44.954H52.618V40.824H56.048V39.606H52.618V36.526H56.944V35.308H51.316ZM60.8956 45.094C62.7576 45.094 64.3256 43.736 64.3256 41.664C64.3256 39.592 62.7576 38.276 60.8956 38.276C59.0336 38.276 57.4796 39.592 57.4796 41.664C57.4796 43.736 59.0336 45.094 60.8956 45.094ZM60.8956 43.862C59.7056 43.862 58.7396 43.008 58.7396 41.664C58.7396 40.348 59.7056 39.522 60.8956 39.522C62.0576 39.522 63.0516 40.348 63.0516 41.664C63.0516 43.008 62.0576 43.862 60.8956 43.862ZM67.295 42.574C67.295 40.838 67.827 39.494 69.087 39.494C69.353 39.494 69.703 39.55 70.053 39.718L70.249 38.528C70.067 38.402 69.577 38.276 69.115 38.276C68.261 38.276 67.631 38.724 67.295 39.886V38.416H66.021V44.954H67.295V42.574ZM75.0914 35.308V44.954H80.9434V43.736H76.3934V40.824H80.2434V39.606H76.3934V36.526H80.8034V35.308H75.0914ZM90.1504 39.522C91.1024 39.522 91.6484 40.18 91.6484 41.258V44.954H92.9224V41.174C92.9224 39.326 92.0404 38.276 90.4024 38.276C89.7724 38.276 88.7364 38.458 88.1344 39.62C87.8264 38.906 87.2524 38.472 86.4264 38.346C86.2024 38.304 85.9644 38.29 85.7124 38.304C85.1804 38.346 84.2424 38.668 83.9064 39.396V38.416H82.6324V44.954H83.9064V41.426C83.9064 40.054 84.8164 39.522 85.7264 39.522C86.5804 39.522 87.1404 40.166 87.1404 41.244V44.954H88.4144V41.426C88.4144 40.334 89.0724 39.522 90.1504 39.522ZM96.2384 38.416H94.9644V48.132H96.2384V43.974C96.6864 44.716 97.5964 45.094 98.5204 45.094C100.312 45.094 101.796 43.778 101.796 41.706C101.796 39.634 100.312 38.276 98.5204 38.276C97.5964 38.276 96.6864 38.696 96.2384 39.438V38.416ZM96.2524 41.72C96.2524 40.334 97.2464 39.522 98.3944 39.522C99.5704 39.522 100.508 40.418 100.508 41.72C100.508 43.022 99.5704 43.848 98.3944 43.848C97.3444 43.848 96.2524 43.12 96.2524 41.72ZM103.496 34.86V44.954H104.77V34.86H103.496ZM109.882 45.094C111.744 45.094 113.312 43.736 113.312 41.664C113.312 39.592 111.744 38.276 109.882 38.276C108.02 38.276 106.466 39.592 106.466 41.664C106.466 43.736 108.02 45.094 109.882 45.094ZM109.882 43.862C108.692 43.862 107.726 43.008 107.726 41.664C107.726 40.348 108.692 39.522 109.882 39.522C111.044 39.522 112.038 40.348 112.038 41.664C112.038 43.008 111.044 43.862 109.882 43.862ZM116.771 48.132L120.831 38.416H119.473L117.513 43.148L115.553 38.416H114.195L116.813 44.758L115.441 48.132H116.771ZM122.82 41.174C122.974 40.068 123.814 39.424 124.892 39.424C125.956 39.424 126.726 40.068 126.88 41.174H122.82ZM128.14 41.664C128.14 39.592 126.754 38.276 124.892 38.276C123.03 38.276 121.546 39.592 121.546 41.664C121.546 43.736 123.03 45.094 124.892 45.094C126.166 45.094 127.342 44.52 127.902 43.358C127.552 43.204 127.146 43.092 126.81 42.938C126.432 43.596 125.718 43.946 124.934 43.946C123.814 43.946 122.974 43.274 122.82 42.168H128.126C128.14 42.014 128.14 41.818 128.14 41.664ZM131.033 42.574C131.033 40.838 131.565 39.494 132.825 39.494C133.091 39.494 133.441 39.55 133.791 39.718L133.987 38.528C133.805 38.402 133.315 38.276 132.853 38.276C131.999 38.276 131.369 38.724 131.033 39.886V38.416H129.759V44.954H131.033V42.574ZM137.608 42.28C138.098 42.392 138.49 42.616 138.476 43.106C138.462 43.596 138.084 43.918 137.482 43.96C137.076 43.988 136.74 43.918 136.446 43.736C136.124 43.582 135.956 43.274 135.914 42.994H134.752C134.794 44.338 136.012 45.094 137.188 45.094C138.546 45.094 139.722 44.366 139.722 43.134C139.722 42.392 139.372 41.566 138.028 41.23L137.062 40.992C136.726 40.894 136.418 40.754 136.292 40.488C136.222 40.348 136.222 40.18 136.278 39.97C136.376 39.62 136.768 39.382 137.258 39.382C137.762 39.382 138.21 39.634 138.28 40.124H139.498C139.386 38.794 138.336 38.276 137.23 38.276C136.054 38.276 135.074 38.99 134.962 39.942C134.85 41.16 135.522 41.748 136.712 42.07L137.608 42.28Z" fill="#FAF8F5"/>
</svg>
