<svg width="30" height="31" viewBox="0 0 30 31" fill="none" xmlns="http://www.w3.org/2000/svg">
<path d="M17.3684 1.57207V12.3337H30C30.0006 9.3408 28.9058 6.448 26.9164 4.18574C24.9269 1.92349 22.1761 0.443413 19.1684 0.0169277C18.2211 -0.123035 17.3684 0.623435 17.3684 1.57207ZM27.3474 21.4935C29.0674 19.3206 30.0011 16.6441 30 13.8888H7.01053L5.93684 11.665C5.80994 11.3995 5.60889 11.1752 5.35722 11.0182C5.10555 10.8612 4.81369 10.7781 4.51579 10.7785H1.57895C0.710526 10.7785 0 11.4784 0 12.3337C0 13.189 0.710526 13.8888 1.57895 13.8888H3.50526C3.50526 13.8888 6.48947 20.2183 6.85263 20.7626C5.76765 21.3371 4.90828 22.2517 4.41064 23.3615C3.913 24.4714 3.80553 25.713 4.10526 26.8898C4.57895 28.8493 6.22105 30.42 8.21053 30.8555C11.5263 31.5708 14.4947 29.3625 14.9211 26.33H18.2053C18.3129 27.0717 18.575 27.7835 18.9751 28.4208C19.3751 29.0581 19.9045 29.6072 20.5301 30.0335C21.1557 30.4598 21.8639 30.7543 22.6105 30.8984C23.357 31.0425 24.1257 31.0332 24.8684 30.871C25.8616 30.656 26.7751 30.1747 27.5079 29.4804C28.2407 28.786 28.7644 27.9056 29.0211 26.9365C29.5737 24.7748 28.8 22.7687 27.3474 21.4935ZM9.47368 27.8851C8.16316 27.8851 7.10526 26.8432 7.10526 25.5524C7.10526 24.2616 8.16316 23.2197 9.47368 23.2197C10.7842 23.2197 11.8421 24.2616 11.8421 25.5524C11.8421 26.8432 10.7842 27.8851 9.47368 27.8851ZM23.6842 27.8851C22.3737 27.8851 21.3158 26.8432 21.3158 25.5524C21.3158 24.2616 22.3737 23.2197 23.6842 23.2197C24.9947 23.2197 26.0526 24.2616 26.0526 25.5524C26.0526 26.8432 24.9947 27.8851 23.6842 27.8851Z" fill="#284F73"/>
</svg>
