<svg width="33" height="36" viewBox="0 0 33 36" fill="none" xmlns="http://www.w3.org/2000/svg">
<path d="M14.2499 0.5C17.6494 0.500222 20.9327 1.73704 23.4874 3.97976C26.0422 6.22248 27.6939 9.31794 28.1344 12.6888L32.0719 18.882C32.3309 19.2897 32.2784 19.897 31.6782 20.156L28.2499 21.6225V26.75C28.2499 27.6783 27.8812 28.5685 27.2248 29.2249C26.5684 29.8813 25.6782 30.25 24.7499 30.25H21.2517L21.2499 35.5H5.49991V29.0355C5.49991 26.9705 4.73691 25.0158 3.32291 23.2518C1.67398 21.1929 0.640235 18.7101 0.340769 16.0894C0.041303 13.4687 0.4883 10.8167 1.63026 8.43899C2.77222 6.06124 4.56269 4.05448 6.79538 2.6499C9.02807 1.24532 11.6121 0.500065 14.2499 0.5ZM13.3224 10.5852C13.04 10.2927 12.7021 10.0593 12.3285 9.89874C11.9549 9.73816 11.553 9.6536 11.1464 9.64998C10.7398 9.64637 10.3365 9.72377 9.96007 9.87768C9.58367 10.0316 9.24169 10.2589 8.95408 10.5464C8.66648 10.8339 8.43901 11.1758 8.28495 11.5521C8.13089 11.9285 8.05332 12.3317 8.05677 12.7384C8.06022 13.145 8.14462 13.5469 8.30505 13.9205C8.46548 14.2942 8.69871 14.6322 8.99116 14.9148L14.2499 20.1753L19.5087 14.9148C19.8011 14.6322 20.0343 14.2942 20.1948 13.9205C20.3552 13.5469 20.4396 13.145 20.443 12.7384C20.4465 12.3317 20.3689 11.9285 20.2149 11.5521C20.0608 11.1758 19.8333 10.8339 19.5457 10.5464C19.2581 10.2589 18.9161 10.0316 18.5397 9.87768C18.1633 9.72377 17.7601 9.64637 17.3534 9.64998C16.9468 9.6536 16.5449 9.73816 16.1713 9.89874C15.7977 10.0593 15.4599 10.2927 15.1774 10.5852L14.2499 11.5128L13.3224 10.5852Z" fill="#284F73"/>
</svg>
