<svg width="20" height="39" viewBox="0 0 20 39" fill="none" xmlns="http://www.w3.org/2000/svg">
<path d="M14.613 4.03124C14.613 5.10039 14.1883 6.12576 13.4323 6.88176C12.6763 7.63776 11.6509 8.06248 10.5818 8.06248C9.51263 8.06248 8.48727 7.63776 7.73126 6.88176C6.97526 6.12576 6.55054 5.10039 6.55054 4.03124C6.55054 2.96209 6.97526 1.93673 7.73126 1.18072C8.48727 0.424719 9.51263 0 10.5818 0C11.6509 0 12.6763 0.424719 13.4323 1.18072C14.1883 1.93673 14.613 2.96209 14.613 4.03124Z" fill="#284F73"/>
<path fill-rule="evenodd" clip-rule="evenodd" d="M7.20687 22.3408C6.90565 22.2876 6.62058 22.1663 6.37341 21.9861L0.830452 17.9548C0.41541 17.6531 0.131059 17.2045 0.0353674 16.7004C-0.0603246 16.1963 0.0398464 15.6746 0.31546 15.2418L2.01564 16.3242L0.31546 15.2418L0.316468 15.2398L0.319492 15.2358L0.328562 15.2207L0.36182 15.1693C0.54599 14.8847 0.733794 14.6025 0.925186 14.3227C1.29304 13.7825 1.805 13.0549 2.37341 12.3202C2.93174 11.5976 3.5858 10.8125 4.23584 10.1907C4.55935 9.88127 4.93123 9.56482 5.33133 9.31387C5.68911 9.08812 6.30085 8.76563 7.05469 8.76563H9.0693C9.49557 8.76562 9.91086 8.90076 10.2555 9.15162L9.07031 10.7812L10.2565 9.15162L10.2595 9.15363L10.2656 9.15766L10.2827 9.17077L10.3412 9.2141L10.5437 9.3693C10.7161 9.50133 10.9589 9.69382 11.2542 9.93771C12.0405 10.5904 12.7962 11.2792 13.5188 12.0017C15.2321 13.715 17.3434 16.2113 18.5004 19.1027C19.1706 20.7777 19.1867 22.3479 18.6496 23.7316C18.1325 25.0609 17.1852 26.0042 16.3024 26.6462C15.4155 27.2922 14.4812 27.7145 13.799 27.9725C13.5148 28.0803 13.2648 28.163 13.0633 28.2244L11.5898 35.9765V36.9843C11.5898 37.5189 11.3775 38.0316 10.9995 38.4096C10.6215 38.7876 10.1088 38.9999 9.57422 38.9999C9.03964 38.9999 8.52696 38.7876 8.14896 38.4096C7.77095 38.0316 7.55859 37.5189 7.55859 36.9843V35.9765C7.55859 30.0758 7.55557 26.2441 7.20687 22.3408ZM6.54373 17.1254C6.38468 16.1492 6.212 15.1752 6.02571 14.2038C5.59326 14.7367 5.17783 15.2832 4.78006 15.8425L6.54373 17.1254Z" fill="#284F73"/>
</svg>
