<svg width="25" height="26" viewBox="0 0 25 26" fill="none" xmlns="http://www.w3.org/2000/svg">
<path d="M7.48081 13.4073L8.86535 12.0097L9.60054 12.6695C14.247 16.8297 18.9093 19.3608 24.3957 20.651C25.136 18.7317 25.2016 16.6192 24.5623 14.5583C23.7142 11.8238 21.739 9.4414 18.8519 7.669C16.3119 6.10953 14.018 5.74426 11.589 5.35739C10.2562 5.14506 8.87545 4.92553 7.37037 4.49188C4.60759 3.69535 1.7104 1.32855 1.68137 1.30516L0.0986736 0L0.0103252 1.99013C0.0040146 2.14367 -0.142391 5.80304 0.907692 10.8533C2.01709 16.1915 4.07813 20.2012 7.03339 22.7671C9.43141 24.8478 12.5627 26 15.6745 26C16.2613 26.0003 16.8473 25.9588 17.4276 25.8758C20.0603 25.4968 22.2508 24.2402 23.4857 22.412C17.8378 21.0157 13.0133 18.3604 8.2141 14.0652L7.48081 13.4073Z" fill="#284F73"/>
</svg>
