<svg width="17" height="18" viewBox="0 0 17 18" fill="none" xmlns="http://www.w3.org/2000/svg">
<path d="M15.1111 1.8H11.1633C10.7667 0.756 9.72778 0 8.5 0C7.27222 0 6.23333 0.756 5.83667 1.8H1.88889C1.38792 1.8 0.907478 1.98964 0.553243 2.32721C0.199007 2.66477 0 3.12261 0 3.6V16.2C0 16.6774 0.199007 17.1352 0.553243 17.4728C0.907478 17.8104 1.38792 18 1.88889 18H15.1111C15.6121 18 16.0925 17.8104 16.4468 17.4728C16.801 17.1352 17 16.6774 17 16.2V3.6C17 3.12261 16.801 2.66477 16.4468 2.32721C16.0925 1.98964 15.6121 1.8 15.1111 1.8ZM8.5 1.8C8.75048 1.8 8.9907 1.89482 9.16782 2.0636C9.34494 2.23239 9.44444 2.46131 9.44444 2.7C9.44444 2.93869 9.34494 3.16761 9.16782 3.3364C8.9907 3.50518 8.75048 3.6 8.5 3.6C8.24952 3.6 8.00929 3.50518 7.83218 3.3364C7.65506 3.16761 7.55556 2.93869 7.55556 2.7C7.55556 2.46131 7.65506 2.23239 7.83218 2.0636C8.00929 1.89482 8.24952 1.8 8.5 1.8ZM3.77778 5.4H13.2222V3.6H15.1111V16.2H1.88889V3.6H3.77778V5.4Z" fill="#403F3F"/>
</svg>
